<svg xmlns="http://www.w3.org/2000/svg" viewBox="0 0 96 96" role="img" aria-label="NEXORA">
  <defs>
    <linearGradient id="a" x1="15" y1="15" x2="78" y2="82" gradientUnits="userSpaceOnUse">
      <stop stop-color="#56C8FF"/>
      <stop offset=".48" stop-color="#0A84FF"/>
      <stop offset="1" stop-color="#0047C7"/>
    </linearGradient>
    <linearGradient id="b" x1="72" y1="12" x2="27" y2="78" gradientUnits="userSpaceOnUse">
      <stop stop-color="#149BFF"/>
      <stop offset="1" stop-color="#073B9B"/>
    </linearGradient>
  </defs>
  <path d="M13 73V26c0-8 9-12 15-6l45 48c5 6 1 15-7 15H50L28 59v14c0 6-4 10-10 10s-5-4-5-10Z" fill="url(#a)"/>
  <path d="M38 29 52 14c3-3 7-5 11-5h20L57 38c-5 5-13 5-19-1l-3-3 3-5Z" fill="url(#a)"/>
  <path d="M24 19c3 0 6 1 8 4l50 53c2 2 2 5 1 7H65L18 33c-6-6-2-14 6-14Z" fill="url(#b)" opacity=".92"/>
</svg>