<svg xmlns="http://www.w3.org/2000/svg" viewBox="0 0 1000 620"><defs><linearGradient id="g" x1="0" x2="1"><stop stop-color="#22c55e"/><stop offset="1" stop-color="#38bdf8"/></linearGradient></defs><rect width="1000" height="620" rx="42" fill="#090a0d"/><g fill="#12151a" stroke="#fff" stroke-opacity=".08"><rect x="90" y="250" width="160" height="120" rx="28"/><rect x="420" y="100" width="160" height="120" rx="28"/><rect x="420" y="400" width="160" height="120" rx="28"/><rect x="750" y="250" width="160" height="120" rx="28"/></g><g stroke="url(#g)" stroke-width="10" stroke-linecap="round" fill="none"><path d="M250 310 H350 Q400 310 400 260 V220"/><path d="M500 220 V400"/><path d="M580 460 H650 Q700 460 700 410 V370"/><path d="M580 160 H650 Q700 160 700 210 V250"/></g><g fill="#f5f5f7"><circle cx="170" cy="310" r="30"/><circle cx="500" cy="160" r="30"/><circle cx="500" cy="460" r="30"/><circle cx="830" cy="310" r="30"/></g><g fill="#090a0d"><circle cx="170" cy="310" r="10"/><circle cx="500" cy="160" r="10"/><circle cx="500" cy="460" r="10"/><circle cx="830" cy="310" r="10"/></g></svg>